Genre:Action | Sci-Fi | Thriller
Language:English
IMDb:http://www.imdb.com/title/tt1217613/
Source:DVD5/Audio:CM8 Thx.
Subtitles:Romana


Format : MPEG-4
Format profile : Base Media
Codec ID : isom
File size : 1.34 GiB
Duration : 1h 51mn
Overall bit rate : 1 723 Kbps


Video
Format profile : High@L4.1
Format settings, CABAC : Yes
Format settings, ReFrames : 3 frames
Codec ID : avc1
Codec ID/Info : Advanced Video Coding
Duration : 1h 51mn
Bit rate mode : Variable
Bit rate : 1 287 Kbps
Maximum bit rate : 11.7 Mbps
Width : 720 pixels
Height : 304 pixels
Display aspect ratio : 2.35:1
Frame rate mode : Constant
Frame rate : 25.000 fps
Color space : YUV
Chroma subsampling : 4:2:0
Bit depth : 8 bits
Scan type : Progressive
Bits/(Pixel*Frame) : 0.235
Stream size : 1 016 MiB (74%)
Writing library : x264


Audio
ID : 2
Format : AAC
Format/Info : Advanced Audio Codec
Format version : Version 4
Format profile : LC
Format settings, SBR : No
Codec ID : 40
Duration : 1h 51mn
Bit rate mode : Variable
Bit rate : 444 Kbps
Maximum bit rate : 511 Kbps
Channel(s) : 6 channels
Channel positions : Front: L C R, Side: L R, LFE
Sampling rate : 48.0 KHz
Stream size : 353 MiB (26%)


Plot:
A Marine platoon faces off against an alien invasion in Los Angeles.
 
http://www.pix2links.com/images/38031306480418645766.png 
http://www.pix2links.com/images/31644109681790471516.png 
http://www.pix2links.com/images/99690345808967235023.png 
http://www.pix2links.com/images/64736256735060943311.png 
http://www.pix2links.com/images/14252159892442477758.png

Greets:

INK,CRYS,IMAGINE,LKRG,FXG,3Li,FLAWL3SS,TA,iLLUSiON,ViSiON,DTRG SAFCuk009,LU,TheFalcon007,MYSTiC,PrisM,Noir,WBZ,LAP,Rx,Kingdom,SAFCuk009+Fabreezy,HDLiTE,TWiZTED,ExtraTorrentRG.ELEKTRI4KA,MAGNAT,CM8
And to all the other p2p grps past and present